<svg width="16" height="16" viewBox="0 0 16 16" fill="none" xmlns="http://www.w3.org/2000/svg">
<g id="at">
<path id="Vector" d="M8.00065 10.0002C8.54065 10.0002 9.00065 9.80016 9.40732 9.40683C9.80065 9.00016 10.0007 8.54016 10.0007 8.00016C10.0007 7.46016 9.80065 7.00016 9.40732 6.5935C9.00065 6.20016 8.54065 6.00016 8.00065 6.00016C7.46065 6.00016 7.00065 6.20016 6.59398 6.5935C6.20065 7.00016 6.00065 7.46016 6.00065 8.00016C6.00065 8.54016 6.20065 9.00016 6.59398 9.40683C7.00065 9.80016 7.46065 10.0002 8.00065 10.0002ZM8.00065 1.3335C9.83398 1.3335 11.4007 2.00016 12.7007 3.30016C14.0006 4.60016 14.6673 6.16683 14.6673 8.00016V8.96683C14.6673 9.6335 14.434 10.2002 14.0007 10.6668C13.534 11.1135 13.0007 11.3335 12.334 11.3335C11.534 11.3335 10.874 11.0002 10.374 10.3335C9.70732 11.0002 8.92065 11.3335 8.00065 11.3335C7.08732 11.3335 6.30065 11.0002 5.64065 10.3602C5.00065 9.70016 4.66732 8.92016 4.66732 8.00016C4.66732 7.08683 5.00065 6.30016 5.64065 5.64016C6.30065 5.00016 7.08732 4.66683 8.00065 4.66683C8.92065 4.66683 9.70065 5.00016 10.3607 5.64016C11.0007 6.30016 11.334 7.08683 11.334 8.00016V8.96683C11.334 9.24016 11.4406 9.48016 11.6406 9.68683C11.8406 9.8935 12.074 10.0002 12.334 10.0002C12.614 10.0002 12.8473 9.8935 13.0473 9.68683C13.2473 9.48016 13.334 9.24016 13.334 8.96683V8.00016C13.334 6.54016 12.8207 5.28683 11.7673 4.2335C10.714 3.18016 9.46065 2.66683 8.00065 2.66683C6.54065 2.66683 5.28732 3.18016 4.23398 4.2335C3.18065 5.28683 2.66732 6.54016 2.66732 8.00016C2.66732 9.46016 3.18065 10.7135 4.23398 11.7668C5.28732 12.8202 6.54065 13.3335 8.00065 13.3335H11.334V14.6668H8.00065C6.16732 14.6668 4.60065 14.0002 3.30065 12.7002C2.00065 11.4002 1.33398 9.8335 1.33398 8.00016C1.33398 6.16683 2.00065 4.60016 3.30065 3.30016C4.60065 2.00016 6.16732 1.3335 8.00065 1.3335Z" fill="black"/>
</g>
</svg>
