<svg width="19" height="18" viewBox="0 0 19 18" fill="none" xmlns="http://www.w3.org/2000/svg">
<g id="instagram-svgrepo-com" clip-path="url(#clip0_0_102192)">
<g id="XMLID_13_">
<path id="XMLID_17_" d="M13.1377 0H5.8623C2.90551 0 0.5 2.40551 0.5 5.3623V12.6377C0.5 15.5945 2.90551 18 5.8623 18H13.1377C16.0945 18 18.5 15.5945 18.5 12.6377V5.3623C18.5 2.40551 16.0945 0 13.1377 0ZM16.6892 12.6377C16.6892 14.5991 15.0991 16.1892 13.1377 16.1892H5.8623C3.90088 16.1892 2.3108 14.5991 2.3108 12.6377V5.3623C2.3108 3.40084 3.90088 1.8108 5.8623 1.8108H13.1377C15.0991 1.8108 16.6892 3.40084 16.6892 5.3623V12.6377Z" fill="white"/>
<path id="XMLID_81_" d="M9.49919 4.34473C6.93217 4.34473 4.84375 6.43315 4.84375 9.00013C4.84375 11.5671 6.93217 13.6556 9.49919 13.6556C12.0662 13.6556 14.1546 11.5671 14.1546 9.00013C14.1546 6.43312 12.0662 4.34473 9.49919 4.34473ZM9.49919 11.8448C7.92812 11.8448 6.65455 10.5712 6.65455 9.00016C6.65455 7.4291 7.92816 6.15552 9.49919 6.15552C11.0703 6.15552 12.3438 7.4291 12.3438 9.00016C12.3438 10.5712 11.0702 11.8448 9.49919 11.8448Z" fill="white"/>
<path id="XMLID_83_" d="M14.1643 5.49517C14.7804 5.49517 15.2798 4.99574 15.2798 4.37967C15.2798 3.76359 14.7804 3.26416 14.1643 3.26416C13.5483 3.26416 13.0488 3.76359 13.0488 4.37967C13.0488 4.99574 13.5483 5.49517 14.1643 5.49517Z" fill="white"/>
</g>
</g>
<defs>
<clipPath id="clip0_0_102192">
<rect width="18" height="18" fill="white" transform="translate(0.5)"/>
</clipPath>
</defs>
</svg>
