<svg width="19" height="18" viewBox="0 0 19 18" fill="none" xmlns="http://www.w3.org/2000/svg">
<g id="linkedin-svgrepo-com" clip-path="url(#clip0_0_102199)">
<path id="Vector" d="M16.8718 0H2.12825C1.229 0 0.5 0.729 0.5 1.62825V16.3717C0.5 17.271 1.229 18 2.12825 18H16.8717C17.771 18 18.5 17.271 18.5 16.3717V1.62825C18.5 0.729 17.771 0 16.8718 0ZM6.06996 15.5424C6.06996 15.8041 5.85783 16.0162 5.59612 16.0162H3.57908C3.31738 16.0162 3.10524 15.8041 3.10524 15.5424V7.08705C3.10524 6.82535 3.31738 6.61321 3.57908 6.61321H5.59612C5.85783 6.61321 6.06996 6.82535 6.06996 7.08705V15.5424ZM4.5876 5.81617C3.52932 5.81617 2.6714 4.95825 2.6714 3.89997C2.6714 2.84169 3.52932 1.98377 4.5876 1.98377C5.64588 1.98377 6.5038 2.84169 6.5038 3.89997C6.5038 4.95825 5.64593 5.81617 4.5876 5.81617ZM16.6109 15.5806C16.6109 15.8212 16.4159 16.0162 16.1753 16.0162H14.0108C13.7702 16.0162 13.5752 15.8212 13.5752 15.5806V11.6145C13.5752 11.0229 13.7487 9.02191 12.029 9.02191C10.6951 9.02191 10.4245 10.3915 10.3702 11.0062V15.5806C10.3702 15.8212 10.1751 16.0162 9.9345 16.0162H7.84113C7.60053 16.0162 7.40545 15.8212 7.40545 15.5806V7.04888C7.40545 6.80829 7.60053 6.61321 7.84113 6.61321H9.9345C10.1751 6.61321 10.3702 6.80829 10.3702 7.04888V7.78655C10.8648 7.04427 11.5999 6.47133 13.165 6.47133C16.6308 6.47133 16.6109 9.70926 16.6109 11.4883V15.5806Z" fill="white"/>
</g>
<defs>
<clipPath id="clip0_0_102199">
<rect width="18" height="18" fill="white" transform="translate(0.5)"/>
</clipPath>
</defs>
</svg>
