<svg width="16" height="16" viewBox="0 0 16 16" fill="none" xmlns="http://www.w3.org/2000/svg">
<g id="map-marker-radius">
<path id="Vector" d="M7.99935 1.3335C10.206 1.3335 11.9993 3.10683 11.9993 5.30016C11.9993 8.2735 7.99935 12.6668 7.99935 12.6668C7.99935 12.6668 3.99935 8.2735 3.99935 5.30016C3.99935 3.10683 5.79268 1.3335 7.99935 1.3335ZM7.99935 4.00016C7.64573 4.00016 7.30659 4.14064 7.05654 4.39069C6.80649 4.64074 6.66602 4.97987 6.66602 5.3335C6.66602 5.68712 6.80649 6.02626 7.05654 6.27631C7.30659 6.52635 7.64573 6.66683 7.99935 6.66683C8.35297 6.66683 8.69211 6.52635 8.94216 6.27631C9.19221 6.02626 9.33268 5.68712 9.33268 5.3335C9.33268 4.97987 9.19221 4.64074 8.94216 4.39069C8.69211 4.14064 8.35297 4.00016 7.99935 4.00016ZM13.3327 12.6668C13.3327 14.1402 10.946 15.3335 7.99935 15.3335C5.05268 15.3335 2.66602 14.1402 2.66602 12.6668C2.66602 11.8068 3.47935 11.0402 4.73935 10.5535L5.16602 11.1602C4.44602 11.4602 3.99935 11.8735 3.99935 12.3335C3.99935 13.2535 5.79268 14.0002 7.99935 14.0002C10.206 14.0002 11.9993 13.2535 11.9993 12.3335C11.9993 11.8735 11.5527 11.4602 10.8327 11.1602L11.2593 10.5535C12.5193 11.0402 13.3327 11.8068 13.3327 12.6668Z" fill="black"/>
</g>
</svg>
