<svg width="17" height="16" viewBox="0 0 17 16" fill="none" xmlns="http://www.w3.org/2000/svg">
<g id="shield-lock">
<path id="Vector" d="M8.5 0.666992L2.5 3.33366V7.33366C2.5 11.0337 5.06 14.4937 8.5 15.3337C11.94 14.4937 14.5 11.0337 14.5 7.33366V3.33366L8.5 0.666992ZM8.5 4.66699C9.43333 4.66699 10.3667 5.40033 10.3667 6.33366V7.33366C10.7667 7.33366 11.1667 7.73366 11.1667 8.20033V10.5337C11.1667 10.9337 10.7667 11.3337 10.3 11.3337H6.63333C6.23333 11.3337 5.83333 10.9337 5.83333 10.467V8.13366C5.83333 7.73366 6.23333 7.33366 6.63333 7.33366V6.33366C6.63333 5.40033 7.56667 4.66699 8.5 4.66699ZM8.5 5.46699C7.96667 5.46699 7.5 5.80033 7.5 6.33366V7.33366H9.5V6.33366C9.5 5.80033 9.03333 5.46699 8.5 5.46699Z" fill="#F68C35"/>
</g>
</svg>
