<svg width="18" height="18" viewBox="0 0 18 18" fill="none" xmlns="http://www.w3.org/2000/svg">
<g id="twitter-svgrepo-com" clip-path="url(#clip0_0_102190)">
<path id="Vector" d="M17.5921 3.33213C17.3093 3.45753 17.0186 3.56339 16.7215 3.64934C17.0732 3.25159 17.3413 2.78359 17.505 2.27147C17.5417 2.15669 17.5037 2.03104 17.4093 1.95594C17.3151 1.88082 17.1842 1.87182 17.0804 1.9333C16.4495 2.30747 15.7689 2.57638 15.0552 2.7336C14.3363 2.03114 13.3599 1.63135 12.3505 1.63135C10.2199 1.63135 8.48642 3.36476 8.48642 5.49536C8.48642 5.66316 8.49704 5.83004 8.51806 5.99461C5.87411 5.76247 3.41607 4.46293 1.72815 2.39241C1.668 2.31861 1.57533 2.27882 1.48044 2.28645C1.38552 2.29386 1.30019 2.34741 1.25224 2.42971C0.909891 3.01713 0.728907 3.689 0.728907 4.37261C0.728907 5.30369 1.06131 6.18705 1.64852 6.87735C1.46996 6.81551 1.29671 6.73823 1.13134 6.64644C1.04257 6.59701 0.934219 6.59778 0.846012 6.64834C0.75777 6.69893 0.702435 6.79192 0.700079 6.89359C0.699657 6.91071 0.699657 6.92783 0.699657 6.9452C0.699657 8.33495 1.44764 9.58619 2.59123 10.2682C2.49297 10.2583 2.39482 10.2441 2.29726 10.2255C2.19668 10.2062 2.09328 10.2415 2.02547 10.3182C1.95754 10.3949 1.93504 10.5017 1.96637 10.5993C2.38965 11.9208 3.47945 12.8928 4.79693 13.1892C3.70421 13.8736 2.45462 14.2321 1.14284 14.2321C0.86911 14.2321 0.593837 14.216 0.324436 14.1842C0.190597 14.1682 0.0626282 14.2473 0.0170307 14.3746C-0.0285668 14.5019 0.0197729 14.6439 0.133608 14.7168C1.81882 15.7974 3.76738 16.3685 5.76857 16.3685C9.70265 16.3685 12.1637 14.5133 13.5355 12.957C15.2461 11.0165 16.2271 8.44787 16.2271 5.90995C16.2271 5.80392 16.2255 5.69687 16.2222 5.59014C16.8971 5.08168 17.4781 4.4663 17.9509 3.75903C18.0228 3.65163 18.015 3.50963 17.9318 3.41078C17.8488 3.31174 17.7103 3.27975 17.5921 3.33213Z" fill="white"/>
</g>
<defs>
<clipPath id="clip0_0_102190">
<rect width="18" height="18" fill="white"/>
</clipPath>
</defs>
</svg>
